<svg viewBox="0 0 183 165" xmlns="http://www.w3.org/2000/svg">
	<title>National Stock Exchange of Australia icon</title>
	<g id="Canvas" transform="translate(363 781)">
		<path transform="translate(-363 -781)" d="M 42.3 164.8C 50.2 164.8 56.8 157.8 59.3 154.8L 180.2 0L 140.3 0C 132.4 0 125.8 7 123.3 10L 122.4 11.1L 2.40002 164.8L 42.3 164.8Z"/>
		<path transform="translate(-363 -781)" d="M 93.6 116.7L 123.4 154.8C 125.9 157.8 132.5 164.8 140.3 164.8L 180.2 164.8L 118.1 85.3L 93.6 116.7Z"/>
		<path transform="translate(-363 -781)" d="M 89 48.1L 59.2 10C 56.8 7 50.2 0 42.3 0L 2.40002 0L 64.5 79.5L 89 48.1Z"/>
		<path transform="translate(-363 -781)" d="M 42.3 107.9L 42.3 56.9L 0 2.79999L 0 162L 42.3 107.9Z"/>
		<path transform="translate(-363 -781)" d="M 140.3 56.9L 140.3 107.9L 182.6 162L 182.6 2.79999L 140.3 56.9Z"/>
	</g>
</svg>
